<?xml version="1.0" standalone="yes"?>

<svg version="1.1" viewBox="0.0 0.0 960.0 720.0" fill="none" stroke="none" stroke-linecap="square" stroke-miterlimit="10" xmlns="http://www.w3.org/2000/svg" xmlns:xlink="http://www.w3.org/1999/xlink"><clipPath id="p.0"><path d="m0 0l960.0 0l0 720.0l-960.0 0l0 -720.0z" clip-rule="nonzero"></path></clipPath><g clip-path="url(#p.0)"><path fill="#000000" fill-opacity="0.0" d="m0 0l960.0 0l0 720.0l-960.0 0z" fill-rule="evenodd"></path><path fill="#000000" fill-opacity="0.0" d="m308.9344 311.2257c8.84021 -0.80426025 18.773407 -0.058898926 26.160095 -4.9816284" fill-rule="evenodd"></path><path stroke="#000000" stroke-width="1.0" stroke-linejoin="round" stroke-linecap="butt" d="m308.9344 311.2257c8.84021 -0.80426025 18.773407 -0.058898926 26.160095 -4.9816284" fill-rule="evenodd"></path><path fill="#000000" fill-opacity="0.0" d="m387.41208 307.4882c12.898132 0 25.891876 -0.36819458 38.614166 -2.4908142" fill-rule="evenodd"></path><path stroke="#000000" stroke-width="1.0" stroke-linejoin="round" stroke-linecap="butt" d="m387.41208 307.4882c12.898132 0 25.891876 -0.36819458 38.614166 -2.4908142" fill-rule="evenodd"></path><path fill="#000000" fill-opacity="0.0" d="m311.4252 398.42258c2.491333 -4.9826965 1.9042664 -14.94751 7.475067 -14.94751c7.634033 0 8.787445 18.043 16.194214 16.194214c11.200531 -2.7956848 15.860046 -21.175842 27.404205 -21.175842c6.75885 0 7.654846 11.926117 13.700775 14.94751c8.945465 4.4703674 12.422333 -19.931763 22.422577 -19.931763c8.062683 0 14.230591 8.002258 19.931763 13.7034" fill-rule="evenodd"></path><path stroke="#000000" stroke-width="1.0" stroke-linejoin="round" stroke-linecap="butt" d="m311.4252 398.42258c2.491333 -4.9826965 1.9042664 -14.94751 7.475067 -14.94751c7.634033 0 8.787445 18.043 16.194214 16.194214c11.200531 -2.7956848 15.860046 -21.175842 27.404205 -21.175842c6.75885 0 7.654846 11.926117 13.700775 14.94751c8.945465 4.4703674 12.422333 -19.931763 22.422577 -19.931763c8.062683 0 14.230591 8.002258 19.931763 13.7034" fill-rule="evenodd"></path></g></svg>

