<?xml version="1.0" standalone="yes"?>

<svg version="1.1" viewBox="0.0 0.0 960.0 720.0" fill="none" stroke="none" stroke-linecap="square" stroke-miterlimit="10" xmlns="http://www.w3.org/2000/svg" xmlns:xlink="http://www.w3.org/1999/xlink"><clipPath id="p.0"><path d="m0 0l960.0 0l0 720.0l-960.0 0l0 -720.0z" clip-rule="nonzero"></path></clipPath><g clip-path="url(#p.0)"><path fill="#000000" fill-opacity="0.0" d="m0 0l960.0 0l0 720.0l-960.0 0z" fill-rule="evenodd"></path><path fill="#000000" fill-opacity="0.0" d="m318.90158 466.93515c-2.3500366 -62.28894 -5.9404297 -125.977356 7.4724426 -186.8504c4.809143 -21.825958 16.298096 -53.637787 38.61679 -54.81102c19.856354 -1.0437927 32.42993 32.798843 28.65091 52.320206c-2.6054382 13.458954 -13.261139 24.71054 -23.669281 33.632538c-5.368286 4.601776 -19.35373 7.3792114 -16.19162 13.70343c0.6890869 1.3781128 -8.512665 -7.371826 21.175873 7.4724426c13.746796 6.8733826 32.05716 21.138794 28.65091 36.125977c-6.037323 26.563782 -37.535675 49.826782 -64.776886 49.826782" fill-rule="evenodd"></path><path stroke="#000000" stroke-width="1.0" stroke-linejoin="round" stroke-linecap="butt" d="m318.90158 466.93515c-2.3500366 -62.28894 -5.9404297 -125.977356 7.4724426 -186.8504c4.809143 -21.825958 16.298096 -53.637787 38.61679 -54.81102c19.856354 -1.0437927 32.42993 32.798843 28.65091 52.320206c-2.6054382 13.458954 -13.261139 24.71054 -23.669281 33.632538c-5.368286 4.601776 -19.35373 7.3792114 -16.19162 13.70343c0.6890869 1.3781128 -8.512665 -7.371826 21.175873 7.4724426c13.746796 6.8733826 32.05716 21.138794 28.65091 36.125977c-6.037323 26.563782 -37.535675 49.826782 -64.776886 49.826782" fill-rule="evenodd"></path></g></svg>

