<?xml version="1.0" standalone="yes"?>

<svg version="1.1" viewBox="0.0 0.0 960.0 720.0" fill="none" stroke="none" stroke-linecap="square" stroke-miterlimit="10" xmlns="http://www.w3.org/2000/svg" xmlns:xlink="http://www.w3.org/1999/xlink"><clipPath id="p.0"><path d="m0 0l960.0 0l0 720.0l-960.0 0l0 -720.0z" clip-rule="nonzero"></path></clipPath><g clip-path="url(#p.0)"><path fill="#000000" fill-opacity="0.0" d="m0 0l960.0 0l0 720.0l-960.0 0z" fill-rule="evenodd"></path><path fill="#000000" fill-opacity="0.0" d="m230.4567 464.44357l195.55905 -247.90552" fill-rule="evenodd"></path><path stroke="#000000" stroke-width="1.0" stroke-linejoin="round" stroke-linecap="butt" d="m230.4567 464.44357l195.55905 -247.90552" fill-rule="evenodd"></path><path fill="#000000" fill-opacity="0.0" d="m368.72702 480.6378l-146.99211 -315.1496" fill-rule="evenodd"></path><path stroke="#000000" stroke-width="1.0" stroke-linejoin="round" stroke-linecap="butt" d="m368.72702 480.6378l-146.99211 -315.1496" fill-rule="evenodd"></path><path fill="#000000" fill-opacity="0.0" d="m576.7541 343.6141c-34.25592 -20.553802 -42.67285 -10.640045 -68.51184 -41.107605c-21.30017 -25.115662 -23.245758 -68.85489 -8.719147 -98.40944c12.755829 -25.951859 45.199066 -40.131744 73.49606 -46.089233c29.66034 -6.2445526 65.71167 -16.81308 90.93176 0c24.275208 16.183182 47.44812 52.833267 36.125977 79.72177c-9.23584 21.933823 -14.443054 20.192001 -34.879272 32.388443c-16.60553 9.910278 -39.02826 24.11499 -56.055115 14.94751c-8.076172 -4.348297 -5.711487 -23.298706 2.4907837 -27.404175" fill-rule="evenodd"></path><path stroke="#000000" stroke-width="1.0" stroke-linejoin="round" stroke-linecap="butt" d="m576.7541 343.6141c-34.25592 -20.553802 -42.67285 -10.640045 -68.51184 -41.107605c-21.30017 -25.115662 -23.245758 -68.85489 -8.719147 -98.40944c12.755829 -25.951859 45.199066 -40.131744 73.49606 -46.089233c29.66034 -6.2445526 65.71167 -16.81308 90.93176 0c24.275208 16.183182 47.44812 52.833267 36.125977 79.72177c-9.23584 21.933823 -14.443054 20.192001 -34.879272 32.388443c-16.60553 9.910278 -39.02826 24.11499 -56.055115 14.94751c-8.076172 -4.348297 -5.711487 -23.298706 2.4907837 -27.404175" fill-rule="evenodd"></path><path fill="#000000" fill-opacity="0.0" d="m647.7583 407.14172c-36.052185 18.427002 -70.533325 41.75659 -109.619446 52.32022c-18.649292 5.0402527 -21.089111 9.367035 -38.61676 1.2440796c-12.636017 -5.855957 -20.7182 -13.7013855 -12.456696 -24.91336c15.535339 -21.083618 21.817474 -16.534119 47.335968 -22.422577c31.623047 -7.297119 68.036804 -8.087585 97.16272 6.2283325c22.998474 11.304169 42.929565 33.374817 68.51178 34.879272c30.690796 1.8049011 22.538208 -57.91388 26.160156 -88.44357c4.2595215 -35.90442 6.850342 -35.501312 13.700745 -71.002625" fill-rule="evenodd"></path><path stroke="#000000" stroke-width="1.0" stroke-linejoin="round" stroke-linecap="butt" d="m647.7583 407.14172c-36.052185 18.427002 -70.533325 41.75659 -109.619446 52.32022c-18.649292 5.0402527 -21.089111 9.367035 -38.61676 1.2440796c-12.636017 -5.855957 -20.7182 -13.7013855 -12.456696 -24.91336c15.535339 -21.083618 21.817474 -16.534119 47.335968 -22.422577c31.623047 -7.297119 68.036804 -8.087585 97.16272 6.2283325c22.998474 11.304169 42.929565 33.374817 68.51178 34.879272c30.690796 1.8049011 22.538208 -57.91388 26.160156 -88.44357c4.2595215 -35.90442 6.850342 -35.501312 13.700745 -71.002625" fill-rule="evenodd"></path></g></svg>

