<?xml version="1.0" standalone="yes"?>

<svg version="1.1" viewBox="0.0 0.0 960.0 720.0" fill="none" stroke="none" stroke-linecap="square" stroke-miterlimit="10" xmlns="http://www.w3.org/2000/svg" xmlns:xlink="http://www.w3.org/1999/xlink"><clipPath id="p.0"><path d="m0 0l960.0 0l0 720.0l-960.0 0l0 -720.0z" clip-rule="nonzero"></path></clipPath><g clip-path="url(#p.0)"><path fill="#000000" fill-opacity="0.0" d="m0 0l960.0 0l0 720.0l-960.0 0z" fill-rule="evenodd"></path><path fill="#000000" fill-opacity="0.0" d="m438.48447 435.79202c-92.94269 -19.80783 -205.12338 -64.98505 -240.41733 -153.21783c-15.910934 -39.776413 -16.865189 -86.506195 -7.4724426 -128.30447c14.291321 -63.59732 73.33533 -125.63408 137.02362 -139.51443c38.955963 -8.490147 81.33502 -13.740944 119.5853 -2.4908133c47.48413 13.96598 87.6095 46.5673 128.30444 74.74016c21.003357 14.540474 42.859924 31.61396 53.56433 54.808395c23.806702 51.584625 -0.71972656 115.51422 -18.685059 169.41208c-11.099426 33.29959 -20.080627 72.93872 -48.58264 93.4252c-14.18103 10.192902 -32.884094 11.958557 -49.826782 16.194214c-20.229462 5.057373 -40.184723 13.70343 -61.036743 13.70343" fill-rule="evenodd"></path><path stroke="#000000" stroke-width="1.0" stroke-linejoin="round" stroke-linecap="butt" d="m438.48447 435.79202c-92.94269 -19.80783 -205.12338 -64.98505 -240.41733 -153.21783c-15.910934 -39.776413 -16.865189 -86.506195 -7.4724426 -128.30447c14.291321 -63.59732 73.33533 -125.63408 137.02362 -139.51443c38.955963 -8.490147 81.33502 -13.740944 119.5853 -2.4908133c47.48413 13.96598 87.6095 46.5673 128.30444 74.74016c21.003357 14.540474 42.859924 31.61396 53.56433 54.808395c23.806702 51.584625 -0.71972656 115.51422 -18.685059 169.41208c-11.099426 33.29959 -20.080627 72.93872 -48.58264 93.4252c-14.18103 10.192902 -32.884094 11.958557 -49.826782 16.194214c-20.229462 5.057373 -40.184723 13.70343 -61.036743 13.70343" fill-rule="evenodd"></path></g></svg>

