<?xml version="1.0" standalone="yes"?>

<svg version="1.1" viewBox="0.0 0.0 720.0 540.0" fill="none" stroke="none" stroke-linecap="square" stroke-miterlimit="10" xmlns="http://www.w3.org/2000/svg" xmlns:xlink="http://www.w3.org/1999/xlink"><clipPath id="p.0"><path d="m0 0l720.0 0l0 540.0l-720.0 0l0 -540.0z" clip-rule="nonzero"></path></clipPath><g clip-path="url(#p.0)"><path fill="#000000" fill-opacity="0.0" d="m0 0l720.0 0l0 540.0l-720.0 0z" fill-rule="evenodd"></path><path fill="#000000" fill-opacity="0.0" d="m240.00032 244.25923c18.876877 -1.4520721 51.000015 -6.0673676 51.000015 -25.0c0 -22.80838 -40.59958 -20.79979 -61.000015 -31.0c-17.938156 -8.969086 -26.350632 -36.422104 -22.0 -56.0c7.694153 -34.623695 66.06853 -52.172592 99.000015 -39.0" fill-rule="evenodd"></path><path stroke="#000000" stroke-width="1.0" stroke-linejoin="round" stroke-linecap="butt" d="m240.00032 244.25923c18.876877 -1.4520721 51.000015 -6.0673676 51.000015 -25.0c0 -22.80838 -40.59958 -20.79979 -61.000015 -31.0c-17.938156 -8.969086 -26.350632 -36.422104 -22.0 -56.0c7.694153 -34.623695 66.06853 -52.172592 99.000015 -39.0" fill-rule="evenodd"></path></g></svg>

