<?xml version="1.0" standalone="yes"?>

<svg version="1.1" viewBox="0.0 0.0 960.0 720.0" fill="none" stroke="none" stroke-linecap="square" stroke-miterlimit="10" xmlns="http://www.w3.org/2000/svg" xmlns:xlink="http://www.w3.org/1999/xlink"><clipPath id="p.0"><path d="m0 0l960.0 0l0 720.0l-960.0 0l0 -720.0z" clip-rule="nonzero"></path></clipPath><g clip-path="url(#p.0)"><path fill="#000000" fill-opacity="0.0" d="m0 0l960.0 0l0 720.0l-960.0 0z" fill-rule="evenodd"></path><path fill="#000000" fill-opacity="0.0" d="m376.19843 448.24933c29.274292 -5.6049805 29.42279 -4.8783875 58.548553 -11.209961c11.037079 -2.3993225 29.476166 0.9477539 32.385834 -9.965881c3.7453613 -14.048004 6.9310303 -31.575867 -1.2440796 -43.59842c-26.03421 -38.28653 -74.57739 -55.206818 -114.6037 -78.47769c-15.081055 -8.767975 -38.237274 -15.181549 -41.107605 -32.38846c-3.4897156 -20.920029 7.657379 -46.218506 24.916016 -58.54593c19.095642 -13.639526 45.746582 -10.499924 68.51181 -16.19423" fill-rule="evenodd"></path><path stroke="#000000" stroke-width="1.0" stroke-linejoin="round" stroke-linecap="butt" d="m376.19843 448.24933c29.274292 -5.6049805 29.42279 -4.8783875 58.548553 -11.209961c11.037079 -2.3993225 29.476166 0.9477539 32.385834 -9.965881c3.7453613 -14.048004 6.9310303 -31.575867 -1.2440796 -43.59842c-26.03421 -38.28653 -74.57739 -55.206818 -114.6037 -78.47769c-15.081055 -8.767975 -38.237274 -15.181549 -41.107605 -32.38846c-3.4897156 -20.920029 7.657379 -46.218506 24.916016 -58.54593c19.095642 -13.639526 45.746582 -10.499924 68.51181 -16.19423" fill-rule="evenodd"></path></g></svg>

