<?xml version="1.0" standalone="yes"?>

<svg version="1.1" viewBox="0.0 0.0 960.0 720.0" fill="none" stroke="none" stroke-linecap="square" stroke-miterlimit="10" xmlns="http://www.w3.org/2000/svg" xmlns:xlink="http://www.w3.org/1999/xlink"><clipPath id="p.0"><path d="m0 0l960.0 0l0 720.0l-960.0 0l0 -720.0z" clip-rule="nonzero"></path></clipPath><g clip-path="url(#p.0)"><path fill="#000000" fill-opacity="0.0" d="m0 0l960.0 0l0 720.0l-960.0 0z" fill-rule="evenodd"></path><path fill="#000000" fill-opacity="0.0" d="m251.63255 336.1391c113.6693 0 170.50392 28.960632 227.33858 57.921265c56.834656 28.960632 113.66931 57.921265 227.33856 57.921265" fill-rule="evenodd"></path><path stroke="#000000" stroke-width="1.0" stroke-linejoin="round" stroke-linecap="butt" d="m251.63255 336.1391c113.6693 0 170.50392 28.960632 227.33858 57.921265c56.834656 28.960632 113.66931 57.921265 227.33856 57.921265" fill-rule="evenodd"></path><path fill="#000000" fill-opacity="0.0" d="m265.33597 478.14697c104.944885 0 157.41733 -37.992126 209.88974 -75.98425c52.472473 -37.992126 104.944885 -75.98425 209.88977 -75.98425" fill-rule="evenodd"></path><path stroke="#000000" stroke-width="1.0" stroke-linejoin="round" stroke-linecap="butt" d="m265.33597 478.14697c104.944885 0 157.41733 -37.992126 209.88974 -75.98425c52.472473 -37.992126 104.944885 -75.98425 209.88977 -75.98425" fill-rule="evenodd"></path></g></svg>

