<?xml version="1.0" standalone="yes"?>

<svg version="1.1" viewBox="0.0 0.0 960.0 720.0" fill="none" stroke="none" stroke-linecap="square" stroke-miterlimit="10" xmlns="http://www.w3.org/2000/svg" xmlns:xlink="http://www.w3.org/1999/xlink"><clipPath id="p.0"><path d="m0 0l960.0 0l0 720.0l-960.0 0l0 -720.0z" clip-rule="nonzero"></path></clipPath><g clip-path="url(#p.0)"><path fill="#000000" fill-opacity="0.0" d="m0 0l960.0 0l0 720.0l-960.0 0z" fill-rule="evenodd"></path><path fill="#000000" fill-opacity="0.0" d="m300.21524 422.09137c0.74838257 -14.986816 2.4882812 -31.387878 11.209961 -43.59842c16.285095 -22.799469 41.714935 -39.387695 53.5643 -64.77692c11.372437 -24.36728 21.014038 -51.688263 18.685059 -78.47768c-1.1954346 -13.750656 -16.661255 -24.729538 -29.89502 -28.650925c-11.147339 -3.303131 -23.905365 -3.8402252 -34.879272 0c-19.643585 6.874115 -40.00537 36.61879 -29.897644 54.811035c9.237274 16.625488 29.663544 24.04898 46.091858 33.632538c39.823822 23.231415 98.47015 53.61975 95.916016 99.653534c-1.6930542 30.514343 -42.952972 55.865173 -73.49606 54.811035c-12.870728 -0.44421387 -27.96814 -3.7361755 -36.123352 -13.70343c-7.6430664 -9.341309 -7.659668 -23.851257 -16.194214 -32.385803" fill-rule="evenodd"></path><path stroke="#000000" stroke-width="1.0" stroke-linejoin="round" stroke-linecap="butt" d="m300.21524 422.09137c0.74838257 -14.986816 2.4882812 -31.387878 11.209961 -43.59842c16.285095 -22.799469 41.714935 -39.387695 53.5643 -64.77692c11.372437 -24.36728 21.014038 -51.688263 18.685059 -78.47768c-1.1954346 -13.750656 -16.661255 -24.729538 -29.89502 -28.650925c-11.147339 -3.303131 -23.905365 -3.8402252 -34.879272 0c-19.643585 6.874115 -40.00537 36.61879 -29.897644 54.811035c9.237274 16.625488 29.663544 24.04898 46.091858 33.632538c39.823822 23.231415 98.47015 53.61975 95.916016 99.653534c-1.6930542 30.514343 -42.952972 55.865173 -73.49606 54.811035c-12.870728 -0.44421387 -27.96814 -3.7361755 -36.123352 -13.70343c-7.6430664 -9.341309 -7.659668 -23.851257 -16.194214 -32.385803" fill-rule="evenodd"></path></g></svg>

