<?xml version="1.0" standalone="yes"?>

<svg version="1.1" viewBox="0.0 0.0 960.0 720.0" fill="none" stroke="none" stroke-linecap="square" stroke-miterlimit="10" xmlns="http://www.w3.org/2000/svg" xmlns:xlink="http://www.w3.org/1999/xlink"><clipPath id="p.0"><path d="m0 0l960.0 0l0 720.0l-960.0 0l0 -720.0z" clip-rule="nonzero"></path></clipPath><g clip-path="url(#p.0)"><path fill="#000000" fill-opacity="0.0" d="m0 0l960.0 0l0 720.0l-960.0 0z" fill-rule="evenodd"></path><path fill="#000000" fill-opacity="0.0" d="m333.84778 411.50394l0 0c0 -85.65198 32.62326 -155.08661 72.86612 -155.08661l0 0c19.325317 0 37.8591 16.339417 51.52417 45.423798c13.665039 29.084412 21.34198 68.53128 21.34198 109.66281l0 0c0 85.65198 -32.62329 155.08664 -72.86615 155.08664l0 0c-40.24286 0 -72.86612 -69.43466 -72.86612 -155.08664z" fill-rule="evenodd"></path><path stroke="#000000" stroke-width="1.0" stroke-linejoin="round" stroke-linecap="butt" d="m333.84778 411.50394l0 0c0 -85.65198 32.62326 -155.08661 72.86612 -155.08661l0 0c19.325317 0 37.8591 16.339417 51.52417 45.423798c13.665039 29.084412 21.34198 68.53128 21.34198 109.66281l0 0c0 85.65198 -32.62329 155.08664 -72.86615 155.08664l0 0c-40.24286 0 -72.86612 -69.43466 -72.86612 -155.08664z" fill-rule="evenodd"></path></g></svg>

