<?xml version="1.0" standalone="yes"?>

<svg version="1.1" viewBox="0.0 0.0 960.0 720.0" fill="none" stroke="none" stroke-linecap="square" stroke-miterlimit="10" xmlns="http://www.w3.org/2000/svg" xmlns:xlink="http://www.w3.org/1999/xlink"><clipPath id="p.0"><path d="m0 0l960.0 0l0 720.0l-960.0 0l0 -720.0z" clip-rule="nonzero"></path></clipPath><g clip-path="url(#p.0)"><path fill="#000000" fill-opacity="0.0" d="m0 0l960.0 0l0 720.0l-960.0 0z" fill-rule="evenodd"></path><path fill="#000000" fill-opacity="0.0" d="m289.00262 236.48557c12.989197 80.22937 20.033081 161.332 32.38846 241.6614" fill-rule="evenodd"></path><path stroke="#000000" stroke-width="1.0" stroke-linejoin="round" stroke-linecap="butt" d="m289.00262 236.48557c12.989197 80.22937 20.033081 161.332 32.38846 241.6614" fill-rule="evenodd"></path><path fill="#000000" fill-opacity="0.0" d="m274.0551 250.18898c78.95969 -10.393692 156.91864 -28.039383 234.18634 -47.335968" fill-rule="evenodd"></path><path stroke="#000000" stroke-width="1.0" stroke-linejoin="round" stroke-linecap="butt" d="m274.0551 250.18898c78.95969 -10.393692 156.91864 -28.039383 234.18634 -47.335968" fill-rule="evenodd"></path><path fill="#000000" fill-opacity="0.0" d="m516.96063 237.72966c0 70.76448 4.933655 141.7144 14.950134 211.7664" fill-rule="evenodd"></path><path stroke="#000000" stroke-width="1.0" stroke-linejoin="round" stroke-linecap="butt" d="m516.96063 237.72966c0 70.76448 4.933655 141.7144 14.950134 211.7664" fill-rule="evenodd"></path><path fill="#000000" fill-opacity="0.0" d="m366.2362 261.39896c0 33.09848 -7.7901 72.74805 -33.635162 93.4252" fill-rule="evenodd"></path><path stroke="#000000" stroke-width="1.0" stroke-linejoin="round" stroke-linecap="butt" d="m366.2362 261.39896c0 33.09848 -7.7901 72.74805 -33.635162 93.4252" fill-rule="evenodd"></path><path fill="#000000" fill-opacity="0.0" d="m402.3596 263.88977c0 26.499298 38.274963 46.089233 64.77426 46.089233" fill-rule="evenodd"></path><path stroke="#000000" stroke-width="1.0" stroke-linejoin="round" stroke-linecap="butt" d="m402.3596 263.88977c0 26.499298 38.274963 46.089233 64.77426 46.089233" fill-rule="evenodd"></path><path fill="#000000" fill-opacity="0.0" d="m335.09448 443.26773c60.034973 0 122.42517 2.8024902 179.3753 -16.194244" fill-rule="evenodd"></path><path stroke="#000000" stroke-width="1.0" stroke-linejoin="round" stroke-linecap="butt" d="m335.09448 443.26773c60.034973 0 122.42517 2.8024902 179.3753 -16.194244" fill-rule="evenodd"></path></g></svg>

