<?xml version="1.0" standalone="yes"?>

<svg version="1.1" viewBox="0.0 0.0 960.0 720.0" fill="none" stroke="none" stroke-linecap="square" stroke-miterlimit="10" xmlns="http://www.w3.org/2000/svg" xmlns:xlink="http://www.w3.org/1999/xlink"><clipPath id="p.0"><path d="m0 0l960.0 0l0 720.0l-960.0 0l0 -720.0z" clip-rule="nonzero"></path></clipPath><g clip-path="url(#p.0)"><path fill="#000000" fill-opacity="0.0" d="m0 0l960.0 0l0 720.0l-960.0 0z" fill-rule="evenodd"></path><path fill="#000000" fill-opacity="0.0" d="m139.52231 415.86353l47.338577 -154.4567" fill-rule="evenodd"></path><path stroke="#000000" stroke-width="1.0" stroke-linejoin="round" stroke-linecap="butt" d="m139.52231 415.86353l47.338577 -154.4567" fill-rule="evenodd"></path><path fill="#000000" fill-opacity="0.0" d="m186.85826 261.39896l42.362213 66.01575" fill-rule="evenodd"></path><path stroke="#000000" stroke-width="1.0" stroke-linejoin="round" stroke-linecap="butt" d="m186.85826 261.39896l42.362213 66.01575" fill-rule="evenodd"></path><path fill="#000000" fill-opacity="0.0" d="m230.4567 326.17322l57.29132 -92.188965" fill-rule="evenodd"></path><path stroke="#000000" stroke-width="1.0" stroke-linejoin="round" stroke-linecap="butt" d="m230.4567 326.17322l57.29132 -92.188965" fill-rule="evenodd"></path><path fill="#000000" fill-opacity="0.0" d="m292.74014 237.72966l44.850403 82.20473" fill-rule="evenodd"></path><path stroke="#000000" stroke-width="1.0" stroke-linejoin="round" stroke-linecap="butt" d="m292.74014 237.72966l44.850403 82.20473" fill-rule="evenodd"></path><path fill="#000000" fill-opacity="0.0" d="m336.3386 317.45407l48.566925 -54.80316" fill-rule="evenodd"></path><path stroke="#000000" stroke-width="1.0" stroke-linejoin="round" stroke-linecap="butt" d="m336.3386 317.45407l48.566925 -54.80316" fill-rule="evenodd"></path><path fill="#000000" fill-opacity="0.0" d="m387.41208 266.38058l62.299194 137.03937" fill-rule="evenodd"></path><path stroke="#000000" stroke-width="1.0" stroke-linejoin="round" stroke-linecap="butt" d="m387.41208 266.38058l62.299194 137.03937" fill-rule="evenodd"></path><path fill="#000000" fill-opacity="0.0" d="m443.4672 399.66928l-301.44882 9.952759" fill-rule="evenodd"></path><path stroke="#000000" stroke-width="1.0" stroke-linejoin="round" stroke-linecap="butt" d="m443.4672 399.66928l-301.44882 9.952759" fill-rule="evenodd"></path></g></svg>

