<?xml version="1.0" standalone="yes"?>

<svg version="1.1" viewBox="0.0 0.0 960.0 720.0" fill="none" stroke="none" stroke-linecap="square" stroke-miterlimit="10" xmlns="http://www.w3.org/2000/svg" xmlns:xlink="http://www.w3.org/1999/xlink"><clipPath id="p.0"><path d="m0 0l960.0 0l0 720.0l-960.0 0l0 -720.0z" clip-rule="nonzero"></path></clipPath><g clip-path="url(#p.0)"><path fill="#000000" fill-opacity="0.0" d="m0 0l960.0 0l0 720.0l-960.0 0z" fill-rule="evenodd"></path><path fill="#000000" fill-opacity="0.0" d="m269.0735 164.23622c41.106293 3.1141663 41.082947 3.4397583 82.212616 6.228348c32.36801 2.1945496 32.395813 1.7452698 64.776886 3.7375336c34.787354 2.1403046 18.636871 0.71466064 18.685028 1.2440948c0.62338257 6.8517 -0.9951477 6.828003 -1.2467041 13.703415c-1.6176147 44.209732 -3.2739258 44.21118 -2.4908142 88.44356c1.7102051 96.59656 2.813263 96.57959 7.475067 193.07874c1.5673828 32.444946 1.3947449 32.490143 4.9816284 64.77426c0.7842407 7.0585938 -3.2792969 14.799866 3.7375183 13.70343c20.381409 -3.1846313 16.987396 -12.227417 36.123383 -19.931763c30.833466 -12.413879 63.924103 -22.419922 97.16269 -22.419922" fill-rule="evenodd"></path><path stroke="#000000" stroke-width="1.0" stroke-linejoin="round" stroke-linecap="butt" d="m269.0735 164.23622c41.106293 3.1141663 41.082947 3.4397583 82.212616 6.228348c32.36801 2.1945496 32.395813 1.7452698 64.776886 3.7375336c34.787354 2.1403046 18.636871 0.71466064 18.685028 1.2440948c0.62338257 6.8517 -0.9951477 6.828003 -1.2467041 13.703415c-1.6176147 44.209732 -3.2739258 44.21118 -2.4908142 88.44356c1.7102051 96.59656 2.813263 96.57959 7.475067 193.07874c1.5673828 32.444946 1.3947449 32.490143 4.9816284 64.77426c0.7842407 7.0585938 -3.2792969 14.799866 3.7375183 13.70343c20.381409 -3.1846313 16.987396 -12.227417 36.123383 -19.931763c30.833466 -12.413879 63.924103 -22.419922 97.16269 -22.419922" fill-rule="evenodd"></path><path fill="#000000" fill-opacity="0.0" d="m276.54648 521.7454c-4.9829407 -40.484253 -6.3541565 -40.33899 -9.965881 -80.968506c-1.1035767 -12.414673 -10.047424 -32.09903 1.2467346 -37.370087c69.35196 -32.367188 151.46802 -24.83496 227.95801 -27.40683c19.663391 -0.66116333 39.461426 -2.7010193 58.548523 -7.4724426c0.08312988 -0.02078247 35.9635 -2.6934204 38.614197 -6.2283325c11.726746 -15.638367 9.78595 -37.938446 12.456665 -57.30185c5.046753 -36.589996 12.182739 -85.97528 -16.194214 -109.619415" fill-rule="evenodd"></path><path stroke="#000000" stroke-width="1.0" stroke-linejoin="round" stroke-linecap="butt" d="m276.54648 521.7454c-4.9829407 -40.484253 -6.3541565 -40.33899 -9.965881 -80.968506c-1.1035767 -12.414673 -10.047424 -32.09903 1.2467346 -37.370087c69.35196 -32.367188 151.46802 -24.83496 227.95801 -27.40683c19.663391 -0.66116333 39.461426 -2.7010193 58.548523 -7.4724426c0.08312988 -0.02078247 35.9635 -2.6934204 38.614197 -6.2283325c11.726746 -15.638367 9.78595 -37.938446 12.456665 -57.30185c5.046753 -36.589996 12.182739 -85.97528 -16.194214 -109.619415" fill-rule="evenodd"></path></g></svg>

