<?xml version="1.0" standalone="yes"?>

<svg version="1.1" viewBox="0.0 0.0 960.0 720.0" fill="none" stroke="none" stroke-linecap="square" stroke-miterlimit="10" xmlns="http://www.w3.org/2000/svg" xmlns:xlink="http://www.w3.org/1999/xlink"><clipPath id="p.0"><path d="m0 0l960.0 0l0 720.0l-960.0 0l0 -720.0z" clip-rule="nonzero"></path></clipPath><g clip-path="url(#p.0)"><path fill="#000000" fill-opacity="0.0" d="m0 0l960.0 0l0 720.0l-960.0 0z" fill-rule="evenodd"></path><path fill="#000000" fill-opacity="0.0" d="m189.34908 577.80054l-13.700775 -115.84253" fill-rule="evenodd"></path><path stroke="#000000" stroke-width="1.0" stroke-linejoin="round" stroke-linecap="butt" d="m189.34908 577.80054l-13.700775 -115.84253" fill-rule="evenodd"></path><path fill="#000000" fill-opacity="0.0" d="m175.64568 460.70602l219.2441 -17.448792" fill-rule="evenodd"></path><path stroke="#000000" stroke-width="1.0" stroke-linejoin="round" stroke-linecap="butt" d="m175.64568 460.70602l219.2441 -17.448792" fill-rule="evenodd"></path><path fill="#000000" fill-opacity="0.0" d="m398.62204 444.5118l-3.7480164 -113.35434" fill-rule="evenodd"></path><path stroke="#000000" stroke-width="1.0" stroke-linejoin="round" stroke-linecap="butt" d="m398.62204 444.5118l-3.7480164 -113.35434" fill-rule="evenodd"></path><path fill="#000000" fill-opacity="0.0" d="m156.96063 341.12073l94.67717 4.9763794" fill-rule="evenodd"></path><path stroke="#000000" stroke-width="1.0" stroke-linejoin="round" stroke-linecap="butt" d="m156.96063 341.12073l94.67717 4.9763794" fill-rule="evenodd"></path><path fill="#000000" fill-opacity="0.0" d="m260.3517 344.85828l24.913391 196.81891" fill-rule="evenodd"></path><path stroke="#000000" stroke-width="1.0" stroke-linejoin="round" stroke-linecap="butt" d="m260.3517 344.85828l24.913391 196.81891" fill-rule="evenodd"></path><path fill="#000000" fill-opacity="0.0" d="m286.5118 552.88715l119.590546 -13.700806" fill-rule="evenodd"></path><path stroke="#000000" stroke-width="1.0" stroke-linejoin="round" stroke-linecap="butt" d="m286.5118 552.88715l119.590546 -13.700806" fill-rule="evenodd"></path></g></svg>

