<svg xmlns="http://www.w3.org/2000/svg" version="1.1"><circle cx="13.5708" cy="18.6374" r="1" stroke="black" stroke-width="0" fill="red" /><text x="13.5708" y="18.6374" fill="black" style="font-size:3px;">0</text><circle cx="20.2143" cy="11.9939" r="1" stroke="black" stroke-width="0" fill="red" /><text x="20.2143" y="11.9939" fill="black" style="font-size:3px;">1</text><circle cx="0.7977" cy="-11.9769" r="1" stroke="black" stroke-width="0" fill="red" /><text x="0.7977" y="-11.9769" fill="black" style="font-size:3px;">2</text><circle cx="20.1312" cy="11.9939" r="1" stroke="black" stroke-width="0" fill="red" /><text x="20.1312" y="11.9939" fill="black" style="font-size:3px;">3</text><circle cx="10.0000" cy="13.2390" r="1" stroke="black" stroke-width="0" fill="red" /><text x="10.0000" y="13.2390" fill="black" style="font-size:3px;">4</text><circle cx="0.7977" cy="-11.9769" r="1" stroke="black" stroke-width="0" fill="red" /><text x="0.7977" y="-11.9769" fill="black" style="font-size:3px;">5</text><circle cx="11.0794" cy="13.5717" r="1" stroke="black" stroke-width="0" fill="red" /><text x="11.0794" y="13.5717" fill="black" style="font-size:3px;">6</text><circle cx="19.8815" cy="16.8095" r="1" stroke="black" stroke-width="0" fill="red" /><text x="19.8815" y="16.8095" fill="black" style="font-size:3px;">7</text><circle cx="0.7977" cy="-11.9769" r="1" stroke="black" stroke-width="0" fill="red" /><text x="0.7977" y="-11.9769" fill="black" style="font-size:3px;">8</text><circle cx="20.6296" cy="16.8934" r="1" stroke="black" stroke-width="0" fill="red" /><text x="20.6296" y="16.8934" fill="black" style="font-size:3px;">9</text><circle cx="15.1493" cy="10.0000" r="1" stroke="black" stroke-width="0" fill="red" /><text x="15.1493" y="10.0000" fill="black" style="font-size:3px;">10</text><circle cx="0.7977" cy="-11.9769" r="1" stroke="black" stroke-width="0" fill="red" /><text x="0.7977" y="-11.9769" fill="black" style="font-size:3px;">11</text><circle cx="14.5673" cy="10.3330" r="1" stroke="black" stroke-width="0" fill="red" /><text x="14.5673" y="10.3330" fill="black" style="font-size:3px;">12</text><circle cx="13.8198" cy="18.2217" r="1" stroke="black" stroke-width="0" fill="red" /><text x="13.8198" y="18.2217" fill="black" style="font-size:3px;">13</text><circle cx="0.7977" cy="-11.9769" r="1" stroke="black" stroke-width="0" fill="red" /><text x="0.7977" y="-11.9769" fill="black" style="font-size:3px;">14</text></svg>