<svg xmlns="http://www.w3.org/2000/svg" version="1.1"><circle cx="16.5039" cy="10.0000" r="1" stroke="black" stroke-width="0" fill="red" /><text x="16.5039" y="10.0000" fill="black" style="font-size:3px;">0</text><circle cx="20.8706" cy="10.8066" r="1" stroke="black" stroke-width="0" fill="red" /><text x="20.8706" y="10.8066" fill="black" style="font-size:3px;">1</text><circle cx="25.5718" cy="12.0361" r="1" stroke="black" stroke-width="0" fill="red" /><text x="25.5718" y="12.0361" fill="black" style="font-size:3px;">2</text><circle cx="25.3942" cy="16.5915" r="1" stroke="black" stroke-width="0" fill="red" /><text x="25.3942" y="16.5915" fill="black" style="font-size:3px;">3</text><circle cx="22.0807" cy="19.8060" r="1" stroke="black" stroke-width="0" fill="red" /><text x="22.0807" y="19.8060" fill="black" style="font-size:3px;">4</text><circle cx="17.9674" cy="22.2203" r="1" stroke="black" stroke-width="0" fill="red" /><text x="17.9674" y="22.2203" fill="black" style="font-size:3px;">5</text><circle cx="13.7646" cy="24.4638" r="1" stroke="black" stroke-width="0" fill="red" /><text x="13.7646" y="24.4638" fill="black" style="font-size:3px;">6</text><circle cx="10.0000" cy="27.1929" r="1" stroke="black" stroke-width="0" fill="red" /><text x="10.0000" y="27.1929" fill="black" style="font-size:3px;">7</text><circle cx="10.8347" cy="31.7095" r="1" stroke="black" stroke-width="0" fill="red" /><text x="10.8347" y="31.7095" fill="black" style="font-size:3px;">8</text><circle cx="14.5229" cy="34.3206" r="1" stroke="black" stroke-width="0" fill="red" /><text x="14.5229" y="34.3206" fill="black" style="font-size:3px;">9</text><circle cx="19.2445" cy="35.0381" r="1" stroke="black" stroke-width="0" fill="red" /><text x="19.2445" y="35.0381" fill="black" style="font-size:3px;">10</text><circle cx="-21.2160" cy="54.9249" r="1" stroke="black" stroke-width="0" fill="red" /><text x="-21.2160" y="54.9249" fill="black" style="font-size:3px;">11</text></svg>