<svg xmlns="http://www.w3.org/2000/svg" version="1.1"><circle cx="10.0000" cy="27.9373" r="1" stroke="black" stroke-width="0" fill="red" /><text x="10.0000" y="27.9373" fill="black" style="font-size:3px;">0</text><circle cx="20.0913" cy="13.2381" r="1" stroke="black" stroke-width="0" fill="red" /><text x="20.0913" y="13.2381" fill="black" style="font-size:3px;">1</text><circle cx="-7.4155" cy="-7.3961" r="1" stroke="black" stroke-width="0" fill="red" /><text x="-7.4155" y="-7.3961" fill="black" style="font-size:3px;">2</text><circle cx="20.3391" cy="13.8612" r="1" stroke="black" stroke-width="0" fill="red" /><text x="20.3391" y="13.8612" fill="black" style="font-size:3px;">3</text><circle cx="31.8005" cy="21.8328" r="1" stroke="black" stroke-width="0" fill="red" /><text x="31.8005" y="21.8328" fill="black" style="font-size:3px;">4</text><circle cx="-7.4155" cy="-7.3961" r="1" stroke="black" stroke-width="0" fill="red" /><text x="-7.4155" y="-7.3961" fill="black" style="font-size:3px;">5</text><circle cx="36.2837" cy="20.2142" r="1" stroke="black" stroke-width="0" fill="red" /><text x="36.2837" y="20.2142" fill="black" style="font-size:3px;">6</text><circle cx="48.7404" cy="10.0000" r="1" stroke="black" stroke-width="0" fill="red" /><text x="48.7404" y="10.0000" fill="black" style="font-size:3px;">7</text><circle cx="-7.4155" cy="-7.3961" r="1" stroke="black" stroke-width="0" fill="red" /><text x="-7.4155" y="-7.3961" fill="black" style="font-size:3px;">8</text><circle cx="49.2388" cy="10.3732" r="1" stroke="black" stroke-width="0" fill="red" /><text x="49.2388" y="10.3732" fill="black" style="font-size:3px;">9</text><circle cx="63.0656" cy="22.0835" r="1" stroke="black" stroke-width="0" fill="red" /><text x="63.0656" y="22.0835" fill="black" style="font-size:3px;">10</text><circle cx="-7.4155" cy="-7.3961" r="1" stroke="black" stroke-width="0" fill="red" /><text x="-7.4155" y="-7.3961" fill="black" style="font-size:3px;">11</text><circle cx="21.2110" cy="34.2903" r="1" stroke="black" stroke-width="0" fill="red" /><text x="21.2110" y="34.2903" fill="black" style="font-size:3px;">12</text><circle cx="57.0882" cy="32.4226" r="1" stroke="black" stroke-width="0" fill="red" /><text x="57.0882" y="32.4226" fill="black" style="font-size:3px;">13</text><circle cx="-7.4155" cy="-7.3961" r="1" stroke="black" stroke-width="0" fill="red" /><text x="-7.4155" y="-7.3961" fill="black" style="font-size:3px;">14</text></svg>