<svg xmlns="http://www.w3.org/2000/svg" version="1.1"><circle cx="10.0000" cy="19.0940" r="1" stroke="black" stroke-width="0" fill="red" /><text x="10.0000" y="19.0940" fill="black" style="font-size:3px;">0</text><circle cx="12.3669" cy="11.3711" r="1" stroke="black" stroke-width="0" fill="red" /><text x="12.3669" y="11.3711" fill="black" style="font-size:3px;">1</text><circle cx="2.9739" cy="-1.7492" r="1" stroke="black" stroke-width="0" fill="red" /><text x="2.9739" y="-1.7492" fill="black" style="font-size:3px;">2</text><circle cx="12.3668" cy="11.3707" r="1" stroke="black" stroke-width="0" fill="red" /><text x="12.3668" y="11.3707" fill="black" style="font-size:3px;">3</text><circle cx="14.4849" cy="14.6715" r="1" stroke="black" stroke-width="0" fill="red" /><text x="14.4849" y="14.6715" fill="black" style="font-size:3px;">4</text><circle cx="2.9739" cy="-1.7492" r="1" stroke="black" stroke-width="0" fill="red" /><text x="2.9739" y="-1.7492" fill="black" style="font-size:3px;">5</text><circle cx="14.5467" cy="14.6094" r="1" stroke="black" stroke-width="0" fill="red" /><text x="14.5467" y="14.6094" fill="black" style="font-size:3px;">6</text><circle cx="17.4113" cy="10.0000" r="1" stroke="black" stroke-width="0" fill="red" /><text x="17.4113" y="10.0000" fill="black" style="font-size:3px;">7</text><circle cx="2.9739" cy="-1.7492" r="1" stroke="black" stroke-width="0" fill="red" /><text x="2.9739" y="-1.7492" fill="black" style="font-size:3px;">8</text><circle cx="17.6609" cy="10.1873" r="1" stroke="black" stroke-width="0" fill="red" /><text x="17.6609" y="10.1873" fill="black" style="font-size:3px;">9</text><circle cx="19.9034" cy="14.2975" r="1" stroke="black" stroke-width="0" fill="red" /><text x="19.9034" y="14.2975" fill="black" style="font-size:3px;">10</text><circle cx="2.9739" cy="-1.7492" r="1" stroke="black" stroke-width="0" fill="red" /><text x="2.9739" y="-1.7492" fill="black" style="font-size:3px;">11</text><circle cx="19.8408" cy="14.1735" r="1" stroke="black" stroke-width="0" fill="red" /><text x="19.8408" y="14.1735" fill="black" style="font-size:3px;">12</text><circle cx="22.2692" cy="11.4333" r="1" stroke="black" stroke-width="0" fill="red" /><text x="22.2692" y="11.4333" fill="black" style="font-size:3px;">13</text><circle cx="2.9739" cy="-1.7492" r="1" stroke="black" stroke-width="0" fill="red" /><text x="2.9739" y="-1.7492" fill="black" style="font-size:3px;">14</text><circle cx="22.3945" cy="11.6198" r="1" stroke="black" stroke-width="0" fill="red" /><text x="22.3945" y="11.6198" fill="black" style="font-size:3px;">15</text><circle cx="25.5094" cy="18.4718" r="1" stroke="black" stroke-width="0" fill="red" /><text x="25.5094" y="18.4718" fill="black" style="font-size:3px;">16</text><circle cx="2.9739" cy="-1.7492" r="1" stroke="black" stroke-width="0" fill="red" /><text x="2.9739" y="-1.7492" fill="black" style="font-size:3px;">17</text><circle cx="25.1972" cy="18.2843" r="1" stroke="black" stroke-width="0" fill="red" /><text x="25.1972" y="18.2843" fill="black" style="font-size:3px;">18</text><circle cx="10.1248" cy="18.7819" r="1" stroke="black" stroke-width="0" fill="red" /><text x="10.1248" y="18.7819" fill="black" style="font-size:3px;">19</text><circle cx="2.9739" cy="-1.7492" r="1" stroke="black" stroke-width="0" fill="red" /><text x="2.9739" y="-1.7492" fill="black" style="font-size:3px;">20</text></svg>