<svg xmlns="http://www.w3.org/2000/svg" version="1.1"><circle cx="10.8722" cy="41.2165" r="1" stroke="black" stroke-width="0" fill="red" /><text x="10.8722" y="41.2165" fill="black" style="font-size:3px;">0</text><circle cx="30.4281" cy="16.4259" r="1" stroke="black" stroke-width="0" fill="red" /><text x="30.4281" y="16.4259" fill="black" style="font-size:3px;">1</text><circle cx="-12.2735" cy="-5.3279" r="1" stroke="black" stroke-width="0" fill="red" /><text x="-12.2735" y="-5.3279" fill="black" style="font-size:3px;">2</text><circle cx="24.6992" cy="42.8359" r="1" stroke="black" stroke-width="0" fill="red" /><text x="24.6992" y="42.8359" fill="black" style="font-size:3px;">3</text><circle cx="10.0000" cy="11.3209" r="1" stroke="black" stroke-width="0" fill="red" /><text x="10.0000" y="11.3209" fill="black" style="font-size:3px;">4</text><circle cx="-12.2735" cy="-5.3279" r="1" stroke="black" stroke-width="0" fill="red" /><text x="-12.2735" y="-5.3279" fill="black" style="font-size:3px;">5</text><circle cx="45.5019" cy="29.1335" r="1" stroke="black" stroke-width="0" fill="red" /><text x="45.5019" y="29.1335" fill="black" style="font-size:3px;">6</text><circle cx="40.3632" cy="26.6861" r="1" stroke="black" stroke-width="0" fill="red" /><text x="40.3632" y="26.6861" fill="black" style="font-size:3px;">7</text><circle cx="37.0427" cy="21.5207" r="1" stroke="black" stroke-width="0" fill="red" /><text x="37.0427" y="21.5207" fill="black" style="font-size:3px;">8</text><circle cx="37.6194" cy="15.5270" r="1" stroke="black" stroke-width="0" fill="red" /><text x="37.6194" y="15.5270" fill="black" style="font-size:3px;">9</text><circle cx="41.9249" cy="11.5956" r="1" stroke="black" stroke-width="0" fill="red" /><text x="41.9249" y="11.5956" fill="black" style="font-size:3px;">10</text><circle cx="47.8168" cy="10.0000" r="1" stroke="black" stroke-width="0" fill="red" /><text x="47.8168" y="10.0000" fill="black" style="font-size:3px;">11</text><circle cx="53.7074" cy="10.2742" r="1" stroke="black" stroke-width="0" fill="red" /><text x="53.7074" y="10.2742" fill="black" style="font-size:3px;">12</text><circle cx="57.6739" cy="14.8423" r="1" stroke="black" stroke-width="0" fill="red" /><text x="57.6739" y="14.8423" fill="black" style="font-size:3px;">13</text><circle cx="56.7379" cy="20.3374" r="1" stroke="black" stroke-width="0" fill="red" /><text x="56.7379" y="20.3374" fill="black" style="font-size:3px;">14</text><circle cx="51.4114" cy="23.2998" r="1" stroke="black" stroke-width="0" fill="red" /><text x="51.4114" y="23.2998" fill="black" style="font-size:3px;">15</text><circle cx="48.9898" cy="20.5382" r="1" stroke="black" stroke-width="0" fill="red" /><text x="48.9898" y="20.5382" fill="black" style="font-size:3px;">16</text><circle cx="-12.2735" cy="-5.3279" r="1" stroke="black" stroke-width="0" fill="red" /><text x="-12.2735" y="-5.3279" fill="black" style="font-size:3px;">17</text><circle cx="52.6023" cy="35.4863" r="1" stroke="black" stroke-width="0" fill="red" /><text x="52.6023" y="35.4863" fill="black" style="font-size:3px;">18</text><circle cx="47.3149" cy="38.3552" r="1" stroke="black" stroke-width="0" fill="red" /><text x="47.3149" y="38.3552" fill="black" style="font-size:3px;">19</text><circle cx="41.8133" cy="40.6706" r="1" stroke="black" stroke-width="0" fill="red" /><text x="41.8133" y="40.6706" fill="black" style="font-size:3px;">20</text><circle cx="36.3155" cy="39.6980" r="1" stroke="black" stroke-width="0" fill="red" /><text x="36.3155" y="39.6980" fill="black" style="font-size:3px;">21</text><circle cx="40.0487" cy="36.3484" r="1" stroke="black" stroke-width="0" fill="red" /><text x="40.0487" y="36.3484" fill="black" style="font-size:3px;">22</text><circle cx="46.2640" cy="35.6120" r="1" stroke="black" stroke-width="0" fill="red" /><text x="46.2640" y="35.6120" fill="black" style="font-size:3px;">23</text><circle cx="51.9282" cy="37.2584" r="1" stroke="black" stroke-width="0" fill="red" /><text x="51.9282" y="37.2584" fill="black" style="font-size:3px;">24</text><circle cx="57.1649" cy="40.1332" r="1" stroke="black" stroke-width="0" fill="red" /><text x="57.1649" y="40.1332" fill="black" style="font-size:3px;">25</text><circle cx="60.1910" cy="36.7044" r="1" stroke="black" stroke-width="0" fill="red" /><text x="60.1910" y="36.7044" fill="black" style="font-size:3px;">26</text><circle cx="60.6571" cy="29.8149" r="1" stroke="black" stroke-width="0" fill="red" /><text x="60.6571" y="29.8149" fill="black" style="font-size:3px;">27</text><circle cx="61.8202" cy="24.2752" r="1" stroke="black" stroke-width="0" fill="red" /><text x="61.8202" y="24.2752" fill="black" style="font-size:3px;">28</text><circle cx="-12.2735" cy="-5.3279" r="1" stroke="black" stroke-width="0" fill="red" /><text x="-12.2735" y="-5.3279" fill="black" style="font-size:3px;">29</text></svg>