<?xml version="1.0" standalone="yes"?>

<svg version="1.1" viewBox="0.0 0.0 960.0 720.0" fill="none" stroke="none" stroke-linecap="square" stroke-miterlimit="10" xmlns="http://www.w3.org/2000/svg" xmlns:xlink="http://www.w3.org/1999/xlink"><clipPath id="p.0"><path d="m0 0l960.0 0l0 720.0l-960.0 0l0 -720.0z" clip-rule="nonzero"></path></clipPath><g clip-path="url(#p.0)"><path fill="#000000" fill-opacity="0.0" d="m0 0l960.0 0l0 720.0l-960.0 0z" fill-rule="evenodd"></path><path fill="#000000" fill-opacity="0.0" d="m261.59824 275.10342c-27.847641 0 -55.716293 -1.3256226 -83.459305 -3.7375183c-8.314499 -0.72283936 -21.182571 -4.9747314 -24.913391 2.4908142c-3.1608124 6.3249817 7.1012726 13.656036 13.70079 16.194214c17.780807 6.838562 35.783493 13.090607 53.5643 19.929138c7.281296 2.800415 16.849548 3.4741516 21.175858 9.965881c4.119171 6.1809387 -5.0723724 14.341553 -9.963257 19.931763c-10.160156 11.612915 -23.56755 27.714447 -18.685043 42.351715c2.9379272 8.807587 17.306946 -7.1325073 24.913391 -12.456696c15.155334 -10.608093 24.404022 -28.016602 38.614166 -39.8609c18.691345 -15.579407 34.943756 49.50586 58.548553 43.59842c2.9322205 -0.7338257 2.722351 -5.7053833 2.4908142 -8.719147c-1.4661255 -19.084656 -37.20395 -38.78293 -23.669281 -52.317596c17.775024 -17.775024 61.8118 -4.802368 69.758514 -28.65091c1.2102356 -3.6319275 -5.038147 -6.423523 -8.719147 -7.475067c-18.404572 -5.25766 -43.03006 1.5690002 -56.055115 -12.456696c-12.911102 -13.902969 -16.423615 -34.317535 -22.422577 -52.31758c-1.7857666 -5.3582916 -4.9141235 -16.229294 -9.965881 -13.703415c-24.083435 12.041718 -23.666656 50.30748 -23.666656 77.23358" fill-rule="evenodd"></path><path stroke="#000000" stroke-width="1.0" stroke-linejoin="round" stroke-linecap="butt" d="m261.59824 275.10342c-27.847641 0 -55.716293 -1.3256226 -83.459305 -3.7375183c-8.314499 -0.72283936 -21.182571 -4.9747314 -24.913391 2.4908142c-3.1608124 6.3249817 7.1012726 13.656036 13.70079 16.194214c17.780807 6.838562 35.783493 13.090607 53.5643 19.929138c7.281296 2.800415 16.849548 3.4741516 21.175858 9.965881c4.119171 6.1809387 -5.0723724 14.341553 -9.963257 19.931763c-10.160156 11.612915 -23.56755 27.714447 -18.685043 42.351715c2.9379272 8.807587 17.306946 -7.1325073 24.913391 -12.456696c15.155334 -10.608093 24.404022 -28.016602 38.614166 -39.8609c18.691345 -15.579407 34.943756 49.50586 58.548553 43.59842c2.9322205 -0.7338257 2.722351 -5.7053833 2.4908142 -8.719147c-1.4661255 -19.084656 -37.20395 -38.78293 -23.669281 -52.317596c17.775024 -17.775024 61.8118 -4.802368 69.758514 -28.65091c1.2102356 -3.6319275 -5.038147 -6.423523 -8.719147 -7.475067c-18.404572 -5.25766 -43.03006 1.5690002 -56.055115 -12.456696c-12.911102 -13.902969 -16.423615 -34.317535 -22.422577 -52.31758c-1.7857666 -5.3582916 -4.9141235 -16.229294 -9.965881 -13.703415c-24.083435 12.041718 -23.666656 50.30748 -23.666656 77.23358" fill-rule="evenodd"></path></g></svg>

