<?xml version="1.0" standalone="yes"?>

<svg version="1.1" viewBox="0.0 0.0 960.0 720.0" fill="none" stroke="none" stroke-linecap="square" stroke-miterlimit="10" xmlns="http://www.w3.org/2000/svg" xmlns:xlink="http://www.w3.org/1999/xlink"><clipPath id="p.0"><path d="m0 0l960.0 0l0 720.0l-960.0 0l0 -720.0z" clip-rule="nonzero"></path></clipPath><g clip-path="url(#p.0)"><path fill="#000000" fill-opacity="0.0" d="m0 0l960.0 0l0 720.0l-960.0 0z" fill-rule="evenodd"></path><path fill="#000000" fill-opacity="0.0" d="m347.55002 196.62466c-2.955658 47.25003 -6.7747498 94.85687 -2.4934387 142.00525" fill-rule="evenodd"></path><path stroke="#000000" stroke-width="1.0" stroke-linejoin="round" stroke-linecap="butt" d="m347.55002 196.62466c-2.955658 47.25003 -6.7747498 94.85687 -2.4934387 142.00525" fill-rule="evenodd"></path><path fill="#000000" fill-opacity="0.0" d="m424.7814 292.54172c-13.457123 -6.728546 -23.866516 -25.057922 -21.175842 -39.860886c2.6566772 -14.615997 25.76773 -24.62947 39.86087 -19.931763c11.638641 3.879547 18.825836 21.993515 14.94751 33.632553c-4.9411926 14.828766 -21.294067 34.83725 -36.123352 29.897644" fill-rule="evenodd"></path><path stroke="#000000" stroke-width="1.0" stroke-linejoin="round" stroke-linecap="butt" d="m424.7814 292.54172c-13.457123 -6.728546 -23.866516 -25.057922 -21.175842 -39.860886c2.6566772 -14.615997 25.76773 -24.62947 39.86087 -19.931763c11.638641 3.879547 18.825836 21.993515 14.94751 33.632553c-4.9411926 14.828766 -21.294067 34.83725 -36.123352 29.897644" fill-rule="evenodd"></path></g></svg>

